<svg id="b46961a6-68a6-49bd-b0c8-0ea6a48c8d9d" data-name="Layer 1" xmlns="http://www.w3.org/2000/svg" xmlns:xlink="http://www.w3.org/1999/xlink" viewBox="0 0 1818.96 1114.25"><defs><style>.b9fd2339-401e-44b3-a54d-0c4dcf7096bd{mask:url(#b5c33c18-b784-4c46-9810-2e214a2b82a4);}.acb386ee-7b27-4b13-846a-2d7de24fc26d,.b244b7ca-0f85-4530-94b7-39e9e795cfa1{mix-blend-mode:multiply;}.acb386ee-7b27-4b13-846a-2d7de24fc26d{fill:url(#eb303802-1f75-4ec0-a656-72137f2c37f3);}.aa70d18b-1495-4775-96e8-51f8098c9c69{mask:url(#a3c55880-bca4-4ab1-9078-5a696815c0dc);}.b244b7ca-0f85-4530-94b7-39e9e795cfa1{fill:url(#a9c1c8ea-87a2-4f84-ac40-2f0c589fa7d4);}.fe0f8b05-7e50-44de-bc02-808c3cdaf14b{fill:#1e1d1d;}.bdac34ad-267b-47f8-8c8b-86049822c018{fill:url(#ba7c477c-8002-4f24-b134-40f0840f7d85);}.a29eda17-21ac-40bd-950f-2323599bb43f{mask:url(#a6e25008-a3e1-4aac-b4c7-936c8534599c);}.e8ecfaf9-de15-4b6e-9bfe-feaeae0f52ba{fill:url(#be9c2505-5fc7-4d30-af80-0807404b41b4);}.ab55bb80-d8c9-4142-948c-4689ecafda7d{fill:url(#bdc28db7-ba88-49f3-aed4-7472e446dfd7);}.ab3d6940-76dd-493c-9101-72430c411885{fill:url(#a510eaed-adf0-492b-b97e-44343c69154a);}.e3c1397d-5b51-4c39-9c90-f7323ac5dd92{fill:url(#af9af2f9-c7ed-4b03-9088-04ab7009ff80);}.bbdc13bc-6482-457d-b848-1467b9aceba7{fill:url(#ab752bf9-7ad5-4dac-bdea-6e2250a056a2);}.bde5c90e-78a8-47e0-8642-e87dacb3e9ba{fill:url(#f26904ab-4815-48e0-85af-1278ecd46ba7);}.b82c7a82-1fa7-4d2d-9afe-14b279243f06{fill:url(#e834678a-a597-4800-88b1-db2b23b14c77);}.a4b27f40-4a54-4193-a8fc-fedae0d04155{fill:url(#f16c9cfe-a92a-4497-b424-2536f9d41b5f);}.be76d39f-c8ad-4373-86b5-5d099c395652{fill:url(#b474304f-ff23-42e8-8423-8bda584c270f);}.fddcb40e-6dac-45c3-a6b4-9de382c99803{fill:#4f4f4f;}.b23c3676-0bf4-489b-b13a-7c8072ada79a{fill:#333030;}.aee16a86-f9af-4d03-954d-796e3099bcb6{fill:#696969;}.eab5df81-957a-4eda-a8fb-ffcbf824267e{fill:#2e2e2e;}.bdafbf65-700c-4728-bb70-0969a2f4e7d3{fill:url(#b5bd6b02-d051-4937-9e27-ed6ebc0b3f07);}.a2b5bc7a-4212-45df-b9b5-1e63184fa001{fill:url(#af53737b-512d-41d7-aaae-e601c5a8b596);}.a5b7f8db-2639-4edb-905c-61786d5ad26b{fill:#151414;}.fe6cb717-91cc-4d34-8f25-5e7873b0db86{fill:#727d8c;}.bf16f069-cf81-4356-a56b-568fc0dad98d{fill:#c60;}.ab405b36-1560-4570-b33d-df74803fb039{fill:#733900;}.a93d4015-d999-4f82-933c-5c4ba6abf647{fill:#0a0a51;}.bc9bd411-98ae-46da-b80b-4ee90bae085d{fill:#fff;}.bf74ebc1-4b89-4e49-b5f1-0e75f40ef7a1{fill:#2e1801;}.bd56b519-fee9-4218-9a68-f42838261de9{fill:url(#b32e7764-d7a4-47d3-a29e-8e6b9cca7028);}.ef62601b-557b-4e75-81c1-5e7d4256eec6{mask:url(#a597b109-343c-4b29-8b19-a45f1b0eb15e);}.ab72a277-27a9-47e2-8577-40e811ab8188{fill:url(#b7e96065-0b8d-4c5c-b18f-f1b5c98af65e);}.bc43ddab-368b-486d-ac11-f3871a382808{fill:url(#bddd1b36-7fea-43ae-9d68-8062364532db);}.fce1f215-df72-467f-bb28-18376bfe975d{filter:url(#fa240467-b0b4-4d49-a480-ea9cab06a0ab);}.a84a0133-c9e3-4852-9f9e-4f3f221a139e{filter:url(#b4cd0a88-6861-47d9-8840-e0264d912e57);}.a51fe178-15df-4b36-8341-c44b84cb9117{filter:url(#aa27d4d5-77ca-4d69-a7e9-e979157868c5);}.e27dabe7-3b01-47a9-b7be-0c0aa679140c{filter:url(#b624ce09-b986-4df5-8d32-bf186d22be27);}</style><filter id="b624ce09-b986-4df5-8d32-bf186d22be27" x="507.68" y="-9192" width="709" height="32766" filterUnits="userSpaceOnUse" color-interpolation-filters="sRGB"><feFlood flood-color="#fff" result="bg"/><feBlend in="SourceGraphic" in2="bg"/></filter><mask id="b5c33c18-b784-4c46-9810-2e214a2b82a4" x="507.68" y="-9192" width="709" height="32766" maskUnits="userSpaceOnUse"><g class="e27dabe7-3b01-47a9-b7be-0c0aa679140c"/></mask><linearGradient id="eb303802-1f75-4ec0-a656-72137f2c37f3" x1="858.49" y1="880.59" x2="863.1" y2="1050.06" gradientUnits="userSpaceOnUse"><stop offset="0" stop-color="#fff"/><stop offset="1"/></linearGradient><filter id="aa27d4d5-77ca-4d69-a7e9-e979157868c5" x="140.98" y="-9192" width="261.8" height="32766" filterUnits="userSpaceOnUse" color-interpolation-filters="sRGB"><feFlood flood-color="#fff" result="bg"/><feBlend in="SourceGraphic" in2="bg"/></filter><mask id="a3c55880-bca4-4ab1-9078-5a696815c0dc" x="140.98" y="-9192" width="261.8" height="32766" maskUnits="userSpaceOnUse"><g class="a51fe178-15df-4b36-8341-c44b84cb9117"/></mask><linearGradient id="a9c1c8ea-87a2-4f84-ac40-2f0c589fa7d4" x1="176.5" y1="489.8" x2="386.54" y2="740.33" gradientUnits="userSpaceOnUse"><stop offset="0" stop-color="#929292"/><stop offset="1"/></linearGradient><radialGradient id="ba7c477c-8002-4f24-b134-40f0840f7d85" cx="864.22" cy="1034.46" r="486.62" gradientUnits="userSpaceOnUse"><stop offset="0" stop-color="#fde370"/><stop offset="0.82" stop-color="#fbb90b"/><stop offset="1" stop-color="#f5a30b"/></radialGradient><filter id="b4cd0a88-6861-47d9-8840-e0264d912e57" x="507.68" y="824.11" width="709" height="249.05" filterUnits="userSpaceOnUse" color-interpolation-filters="sRGB"><feFlood flood-color="#fff" result="bg"/><feBlend in="SourceGraphic" in2="bg"/></filter><mask id="a6e25008-a3e1-4aac-b4c7-936c8534599c" x="417.16" y="381.23" width="709" height="249.05" maskUnits="userSpaceOnUse"><g class="a84a0133-c9e3-4852-9f9e-4f3f221a139e"><g transform="translate(-90.52 -442.87)"><g class="b9fd2339-401e-44b3-a54d-0c4dcf7096bd"><path class="acb386ee-7b27-4b13-846a-2d7de24fc26d" d="M1216.68,1016.29c0,106.14-140.53,31.17-336.32,31.17s-372.68,75-372.68-31.17S666.4,824.11,862.18,824.11,1216.68,910.15,1216.68,1016.29Z"/></g></g></g></mask><linearGradient id="be9c2505-5fc7-4d30-af80-0807404b41b4" x1="858.49" y1="880.59" x2="863.1" y2="1050.06" gradientUnits="userSpaceOnUse"><stop offset="0" stop-color="#fdf2c2"/><stop offset="1" stop-color="#fdf2c2"/></linearGradient><radialGradient id="bdc28db7-ba88-49f3-aed4-7472e446dfd7" cx="412.75" cy="675.14" r="73.37" gradientUnits="userSpaceOnUse"><stop offset="0" stop-color="#fd9203"/><stop offset="1" stop-color="#fbb90b"/></radialGradient><radialGradient id="a510eaed-adf0-492b-b97e-44343c69154a" cx="1163.41" cy="689.82" r="73.37" xlink:href="#bdc28db7-ba88-49f3-aed4-7472e446dfd7"/><linearGradient id="af9af2f9-c7ed-4b03-9088-04ab7009ff80" x1="662.72" y1="1262.33" x2="665.73" y2="1307.56" gradientTransform="translate(1840.09 508.54) rotate(90)" gradientUnits="userSpaceOnUse"><stop offset="0" stop-color="#fdf0a6"/><stop offset="1" stop-color="#fbaa0b"/></linearGradient><linearGradient id="ab752bf9-7ad5-4dac-bdea-6e2250a056a2" x1="1108.23" y1="1181.01" x2="1111.6" y2="1231.54" gradientTransform="translate(47.21 -26.87)" xlink:href="#af9af2f9-c7ed-4b03-9088-04ab7009ff80"/><linearGradient id="f26904ab-4815-48e0-85af-1278ecd46ba7" x1="856.99" y1="404.92" x2="858.61" y2="845.15" gradientUnits="userSpaceOnUse"><stop offset="0" stop-color="#fff"/><stop offset="0.2" stop-color="#c4c4c4"/><stop offset="0.49" stop-color="#717171"/><stop offset="0.73" stop-color="#343434"/><stop offset="0.91" stop-color="#0e0e0e"/><stop offset="1"/></linearGradient><linearGradient id="e834678a-a597-4800-88b1-db2b23b14c77" x1="938.57" y1="1606.03" x2="952.25" y2="1458.24" gradientTransform="matrix(0.66, 0.76, -0.76, 0.66, 1013.74, -352.89)" xlink:href="#f26904ab-4815-48e0-85af-1278ecd46ba7"/><radialGradient id="f16c9cfe-a92a-4497-b424-2536f9d41b5f" cx="1070.2" cy="1076.11" r="61.7" gradientUnits="userSpaceOnUse"><stop offset="0.37" stop-color="#79efff"/><stop offset="0.49" stop-color="#78ecff"/><stop offset="0.57" stop-color="#75e3ff"/><stop offset="0.65" stop-color="#71d4ff"/><stop offset="0.71" stop-color="#6abeff"/><stop offset="0.77" stop-color="#62a2ff"/><stop offset="0.78" stop-color="#609dff"/><stop offset="0.99" stop-color="#2e219d"/></radialGradient><radialGradient id="b474304f-ff23-42e8-8423-8bda584c270f" cx="672.48" cy="1040.65" r="143.87" gradientUnits="userSpaceOnUse"><stop offset="0.58" stop-color="#fff"/><stop offset="1" stop-color="#94dbff"/></radialGradient><radialGradient id="b5bd6b02-d051-4937-9e27-ed6ebc0b3f07" cx="679.68" cy="1055.08" r="69.86" xlink:href="#f16c9cfe-a92a-4497-b424-2536f9d41b5f"/><radialGradient id="af53737b-512d-41d7-aaae-e601c5a8b596" cx="1073.04" cy="1043.37" r="150.09" xlink:href="#b474304f-ff23-42e8-8423-8bda584c270f"/><linearGradient id="b32e7764-d7a4-47d3-a29e-8e6b9cca7028" x1="1364" y1="824.77" x2="1376.36" y2="909.17" xlink:href="#f26904ab-4815-48e0-85af-1278ecd46ba7"/><filter id="fa240467-b0b4-4d49-a480-ea9cab06a0ab" x="140.98" y="460.42" width="261.8" height="283.86" filterUnits="userSpaceOnUse" color-interpolation-filters="sRGB"><feFlood flood-color="#fff" result="bg"/><feBlend in="SourceGraphic" in2="bg"/></filter><mask id="a597b109-343c-4b29-8b19-a45f1b0eb15e" x="50.46" y="17.55" width="261.8" height="283.86" maskUnits="userSpaceOnUse"><g class="fce1f215-df72-467f-bb28-18376bfe975d"><g transform="translate(-90.52 -442.87)"><g class="aa70d18b-1495-4775-96e8-51f8098c9c69"><path class="b244b7ca-0f85-4530-94b7-39e9e795cfa1" d="M144.26,519c-5.69-7.23-4.54-31,7.82-45.47,11.68-13.7,34-18.79,48.4-4.89,72.36,69.91,202.29,223,202.29,223L362,744.28S196.57,585.51,144.26,519Z"/></g></g></g></mask><linearGradient id="b7e96065-0b8d-4c5c-b18f-f1b5c98af65e" x1="176.5" y1="489.8" x2="386.54" y2="740.33" gradientUnits="userSpaceOnUse"><stop offset="0" stop-color="#747675"/><stop offset="1" stop-color="#333030"/></linearGradient><linearGradient id="bddd1b36-7fea-43ae-9d68-8062364532db" x1="943.71" y1="1515.96" x2="957.53" y2="1366.76" gradientTransform="translate(-469.02 1250.85) rotate(-52.56)" xlink:href="#f26904ab-4815-48e0-85af-1278ecd46ba7"/></defs><path class="fe0f8b05-7e50-44de-bc02-808c3cdaf14b" d="M155.83,458a33.36,33.36,0,0,1,14.57-7.29,18.9,18.9,0,0,1,6.78-1.25,26.43,26.43,0,0,1,5.28.5.22.22,0,0,1,.25-.25Q141,435.35,109.1,478.81q-20.61,27.65-13.57,52.51a68.53,68.53,0,0,0,4,9.8A320.5,320.5,0,0,0,141,526.55l-.26-.25q-17.58-13.06-4.52-46.48,6.54-11.56,19.6-21.86Z" transform="translate(-90.52 -442.87)"/><path class="bdac34ad-267b-47f8-8c8b-86049822c018" d="M1282.65,959.69q-54-60.87-227.37-23.62-146.85,34-285.41,15.08A724.77,724.77,0,0,1,649,924.27q-16.57-5.22-32.16-8.55-76.61-16.44-130.14,12.06-40,21.45-46.48,94-3.83,114.63,113.56,170.84,111.18,56,199,14.32,96.32-46.15,187.93-4.27,101.67,49.59,205.27,26.64,117.38-17.19,153-179.14Q1309.59,991.72,1282.65,959.69Z" transform="translate(-90.52 -442.87)"/><g class="a29eda17-21ac-40bd-950f-2323599bb43f"><path class="e8ecfaf9-de15-4b6e-9bfe-feaeae0f52ba" d="M1216.68,1016.29c0,106.14-140.53,31.17-336.32,31.17s-372.68,75-372.68-31.17S666.4,824.11,862.18,824.11,1216.68,910.15,1216.68,1016.29Z" transform="translate(-90.52 -442.87)"/></g><ellipse class="ab55bb80-d8c9-4142-948c-4689ecafda7d" cx="412.75" cy="675.14" rx="87.11" ry="56.36"/><ellipse class="ab3d6940-76dd-493c-9101-72430c411885" cx="1163.41" cy="689.82" rx="87.11" ry="56.36"/><ellipse class="e3c1397d-5b51-4c39-9c90-f7323ac5dd92" cx="534.07" cy="1174.14" rx="42.52" ry="98.02" transform="translate(-833.9 552.54) rotate(-57.58)"/><ellipse class="bbdc13bc-6482-457d-b848-1467b9aceba7" cx="1158.3" cy="1197.79" rx="98.02" ry="42.52" transform="translate(-401 -31.87) rotate(-17.78)"/><path d="M1358.53,990.59a535.21,535.21,0,0,0-17.84-106.52q-33.45-122.31-125.37-219.34-145-152.51-349.73-152.5T515.86,664.73a561.36,561.36,0,0,0-49.24,59.55,10,10,0,0,1-1.26,1.5,558,558,0,0,0-32.91,53q-5.83,11.13-11.31,22.36-1.74,3.9-3.52,7.79-2.34,5.12-4.52,10.3-3.69,8.47-7,17.08-2.06,5.35-4,10.8c-1.51,4.28-3,8.55-4.53,12.82q-26.37,80.84-26.38,173.1,0,215.82,144.72,368.33,145,152.5,349.73,152.5,97.74,0,181.9-34.42,12.06-5,23.11-10.8,78.64-37.7,144.72-107.28Q1360,1248.88,1360,1033.05,1360,1011.6,1358.53,990.59Zm-56.36,60.13c-24,109-76.36,170.19-155.72,181.89a302.65,302.65,0,0,1-65.29,7.18c-47.6,0-95.11-11.44-141.87-34.23-59.8-27.35-122.11-25.93-185.1,4.28-59.23,28.09-127.14,23.26-201.85-14.35-79.1-37.88-117.88-96.38-115.22-173.85,4.32-49.46,20.49-81.94,48.06-96.71,36.23-19.3,80.76-23.47,132.36-12.38,10.43,2.23,21.35,5.13,32.45,8.62a732.15,732.15,0,0,0,120.44,26.89c91.48,12.43,187.06,7.35,284.12-15.15,116.32-25,193.93-16.67,230.65,24.75C1303.7,979.68,1309.39,1011,1302.17,1050.72Z" transform="translate(-90.52 -442.87)"/><path d="M914.08,1252.89q75.21,7.56,164.82,68.34-89.61-60.78-164.82-68.34Z" transform="translate(-90.52 -442.87)"/><path class="bde5c90e-78a8-47e0-8642-e87dacb3e9ba" d="M1190.62,751.49c0,93.94-148.8,170.09-332.36,170.09S525.9,845.43,525.9,751.49s148.81-191.6,332.36-191.6S1190.62,657.55,1190.62,751.49Z" transform="translate(-90.52 -442.87)"/><path class="b82c7a82-1fa7-4d2d-9afe-14b279243f06" d="M415.75,1116.85c-29.37,25.49,3.2,144.24,84.84,238.32S687.41,1510,716.78,1484.48s-59.56-78.12-141.21-172.2S445.12,1091.37,415.75,1116.85Z" transform="translate(-90.52 -442.87)"/><path d="M556.56,1286.56q143.9,15.72,237.68-51.51-93.78,67.23-237.68,51.51Z" transform="translate(-90.52 -442.87)"/><path d="M712.33,1327q61.47-44.9,117.83-59.55-56.35,14.67-117.83,59.55Z" transform="translate(-90.52 -442.87)"/><path d="M589.22,877.79q38.17-3.45,69.85,7,46.29,14.52,65.57,15.83-19.27-1.32-65.57-15.83-31.67-10.47-69.85-7Z" transform="translate(-90.52 -442.87)"/><path d="M1037.69,1002.91c-3.42,1.28-6.85,2.46-10.3,3.51q-13.07,17.64-13.06,41.71,0,25.13,14.07,43,14.31,17.84,34.16,17.84,20.1,0,34.17-17.84,14.32-17.83,14.32-43,0-24.87-14.32-42.71-8.18-10.38-18.59-14.83-18.89,5.2-40.45,12.32Z" transform="translate(-90.52 -442.87)"/><path class="a4b27f40-4a54-4193-a8fc-fedae0d04155" d="M1003.52,1014l-.25.25q-9.79,19-9.8,42.71,0,34.92,21.61,59.55t52.26,24.62q30.65,0,52.26-24.62t21.6-59.55q0-34.92-21.6-59.54A78.07,78.07,0,0,0,1105,984.31q-12.7,2.66-26.88,6.28,10.41,4.45,18.59,14.83,14.32,17.83,14.32,42.71,0,25.13-14.32,43-14.07,17.84-34.17,17.84-19.85,0-34.16-17.84-14.07-17.83-14.07-43,0-24.08,13.06-41.71-12.47,4.5-23.87,7.54Z" transform="translate(-90.52 -442.87)"/><path class="be76d39f-c8ad-4373-86b5-5d099c395652" d="M570.88,966.73q-37.43,31.65-37.43,78.64,0,46.73,37.43,80.9a156.91,156.91,0,0,0,49.5,30.65,169.49,169.49,0,0,0,19.09,6.53c1.45.37,2.87.71,4.27,1a186.73,186.73,0,0,0,22.11,4.28q48.09,7,80.15-15.83a8,8,0,0,0,1.25-.76,89.77,89.77,0,0,0,11.06-9.54q34.77-34.27,32.16-72.86-2.38-38.34-9.3-57a45.33,45.33,0,0,1-6-.25q-5.14-.23-10.55-1,8.13,35.5-8.79,67.33-2.91,5.19-6.28,10-26.13,37.93-63.32,37.94-28.35,0-50.25-22.11-31.41-30.27-32.66-80.65Q606,985.6,638,962.46a257.28,257.28,0,0,0-36.43-8.55q-5.24-.75-10.3-1.25A125.71,125.71,0,0,0,570.88,966.73Z" transform="translate(-90.52 -442.87)"/><path d="M682.47,983.48q-17.07.13-30.71,13.4-15.21,15-17.25,37.81t10.3,40q12.32,17.49,31.83,19.24t34.74-13.3q15.2-14.79,17.22-37.56c1.25-14-2.46-31.77-9.38-42.82-12.35-6-24-8.12-36.75-16.79Z" transform="translate(-90.52 -442.87)"/><path class="fe0f8b05-7e50-44de-bc02-808c3cdaf14b" d="M295.77,737.84q9-2.51,17.59-4a242.85,242.85,0,0,0,23.61-7l-26.63-26.88q-35.93,9-42.71,10.55l28.14,27.38Zm60.55,8.55-.25-.25v.25Zm-40.95,10.55,9.8,9.8,41.45-10-10.3-10.3h-.25q-7.29,2.5-15.08,4.52a205.09,205.09,0,0,1-25.62,6ZM464.61,653.43l-54.52,11.05q-6.54,5.78-11.81,10.55l15.58,16.84-47.24,64.82-41.45,10q-10.82,17.32-21.61,38.94l67.08-11.56a850.24,850.24,0,0,1,65.83-103.76q13.3-18.6,28.14-36.93Zm-207-6.28-1.51-1.76-.5-.51c0,.14-.06.23-.25.26v-.26h.25q-32,9.82-42.71,11.56l33.67,33.42q31.16-9.61,41.2-12.57l-30.15-30.14ZM150.8,547.4h-.25q-5.27,2.52-9.8,4.27a196.74,196.74,0,0,1-26.88,8l30.65,29.65,42-13.57-3.77-4L157.59,546.4l-1.26-1.51-5.53,2.51ZM192,636.09l43.21-11.56-31.15-31.65q-7.55,3.51-43,12.81L192,636.09ZM326.17,820.75,368.88,815l19.35-3-17.59-17.84-67.08,11.56Z" transform="translate(-90.52 -442.87)"/><path class="fddcb40e-6dac-45c3-a6b4-9de382c99803" d="M337.23,727l-.26-.25a242.85,242.85,0,0,1-23.61,7q-8.55,1.51-17.59,4l19.6,19.1a205.09,205.09,0,0,0,25.62-6q7.8-2,15.08-4.52L337.23,727Zm-49.5-49.49v-.26q-10.05,3-41.2,12.57l21.1,20.6q6.78-1.51,42.71-10.55h-.25l-22.36-22.36ZM192,636.09l20.85,20.35q10.68-1.74,42.71-11.56l-20.35-20.35L192,636.09Zm-92.46-95c.67,1,1.34,2.09,2,3.27A76,76,0,0,0,113.12,559l.75.75a196.74,196.74,0,0,0,26.88-8q4.53-1.75,9.8-4.27h.25l5.53-2.51-3.27-3.27a98.56,98.56,0,0,1-10.3-12.06,27.51,27.51,0,0,1-1.75-3,320.5,320.5,0,0,1-41.46,14.57ZM186.73,576l-.25-.25-42,13.57,16.58,16.33q35.43-9.3,43-12.81Z" transform="translate(-90.52 -442.87)"/><path class="b23c3676-0bf4-489b-b13a-7c8072ada79a" d="M353.31,677.29q-1.26.76-2,1.26a217.43,217.43,0,0,1-23.12,13.57q-9.54,4.51-18.09,7.79h.25L337,726.79l.26.25c.83-1.51,1.59-3,2.26-4.52a121.76,121.76,0,0,0,13.82-45.23Zm45-2.26L383.2,658.2q-2.76,22.86-6.78,44.47a95.78,95.78,0,0,1-17.08,39.7,11.51,11.51,0,0,0-1.76,2.26,6.63,6.63,0,0,0-1.26,1.76l10.3,10.3,47.24-64.82L398.28,675Zm-70.85-13.31a14.66,14.66,0,0,1,3-1.76,327.5,327.5,0,0,0,30.15-21.61l.25-.25,1-1a3,3,0,0,1,.75-.51c0-.16.25-.33.76-.5l-18.85-20.35q-4,17.58-17.08,46Zm-12.82-39h-.25q-1.94,1-10.05,5a166.34,166.34,0,0,1-21.6,8.29q-13.45,4.56-21.61,7-4.2,1.27-5.53,1.75h0l.5.51,1.51,1.76,30.15,30.14v.26L292.5,676h-.25a10.44,10.44,0,0,1,1.26-3.27q14.57-30.4,21.1-50ZM243,613q3.72-9.37,13.57-44.47h-.25q-20.17,11.72-33.42,17.08t-18.84,7.29l31.15,31.65c1-.3,2-.63,3-1q1-.93,4.77-10.55Zm-5.78-115.07c-.49,2.66-1.41,7.19-2.76,13.56s-3.47,14.11-6.28,23.12a150,150,0,0,1-9.8,25.12c1.17-.67,2.43-1.34,3.77-2q12.81-7,32.66-20.1,6.29-4,11.56-7.28l-29.15-32.41Zm18.09,147h0ZM170.4,450.67A33.36,33.36,0,0,0,155.83,458q-13.07,10.31-19.6,21.86-13.06,33.4,4.52,46.48l.26.25q4.77-38.94,41.45-76.63a26.43,26.43,0,0,0-5.28-.5,18.9,18.9,0,0,0-6.78,1.25Zm-3.27,90.7q-5,2.52-9.54,5l25.12,25.37H183a173.78,173.78,0,0,0,12.31-24.37,124.47,124.47,0,0,0,7.54-26.13,396.76,396.76,0,0,1-35.68,20.1Zm1-30.65a35.68,35.68,0,0,1,6-3.52q27.59-15.61,43.72-30.65h0l-.26-.25h.26l-9.3-9.8L206.08,464a1.67,1.67,0,0,0-.76.75V465q-22.86,22.62-34.67,41c-.84,1.5-1.67,3.1-2.51,4.77ZM479.43,669.51l-14.82-16.08q-14.83,18.33-28.14,36.93a850.24,850.24,0,0,0-65.83,103.76L388.23,812q3.27-7,6.28-13.82a548.55,548.55,0,0,1,55.27-91.95,112.51,112.51,0,0,1,7.54-10.05q8-10.3,16.58-20.35a64.89,64.89,0,0,1,5.53-6.28Zm-161.8-79.4a6.57,6.57,0,0,1,2.26-1.5L288,553.68q-9.54,37.94-17.08,59.3a9.71,9.71,0,0,1,2-.76q19.33-7.29,44.72-22.61Z" transform="translate(-90.52 -442.87)"/><path class="aee16a86-f9af-4d03-954d-796e3099bcb6" d="M381.7,656.69c-1,.84-2.1,1.68-3.27,2.51q-17.83,13.57-25.12,18.09a121.76,121.76,0,0,1-13.82,45.23c-.67,1.51-1.43,3-2.26,4.52l18.84,19.35v-.25l.25.25a6.63,6.63,0,0,1,1.26-1.76,11.51,11.51,0,0,1,1.76-2.26,95.78,95.78,0,0,0,17.08-39.7q4-21.6,6.78-44.47l-1.5-1.51ZM292.25,676h.25l-4.77,1.51,22.36,22.36q8.55-3.27,18.09-7.79a217.43,217.43,0,0,0,23.12-13.57q.75-.49,2-1.26,7.28-4.51,25.12-18.09c1.17-.83,2.26-1.67,3.27-2.51l-18.34-20.6c-.51.17-.76.34-.76.5a3,3,0,0,0-.75.51l-1,1-.25.25A327.5,327.5,0,0,1,330.44,660a14.66,14.66,0,0,0-3,1.76q-4.79,2.5-14.57,6.78A180.68,180.68,0,0,1,292.25,676Zm52.26-60.3-6-6.78q-16.32,9-23.87,13.81-6.53,19.61-21.1,50a10.44,10.44,0,0,0-1.26,3.27,180.68,180.68,0,0,0,20.61-7.54q9.79-4.28,14.57-6.78,13.06-28.4,17.08-46Zm-24.62-27.13a6.57,6.57,0,0,0-2.26,1.5v-.5q-25.38,15.33-44.72,22.61-2.52,1.26-11.81,4.52-8.64,2.73-22.86,6.79c-1,.37-2,.7-3,1l20.35,20.35q1.33-.48,5.53-1.75,8.16-2.49,21.61-7a166.34,166.34,0,0,0,21.6-8.29q8.12-4,10.05-5h.25Q322.15,618,338.48,609l-18.59-20.35ZM288,553.68l-4.27-5-27.38,19.85h.25Q246.73,603.6,243,613q-3.72,9.62-4.77,10.55,14.22-4.06,22.86-6.79,9.3-3.25,11.81-4.52a9.71,9.71,0,0,0-2,.76q7.53-21.36,17.08-59.3Zm-21.6-23.36q-5.28,3.25-11.56,7.28Q235,550.67,222.16,557.7c-1.34.67-2.6,1.34-3.77,2L186.73,576l17.34,16.84q5.64-1.93,18.84-7.29t33.42-17.08l27.38-19.85-17.33-18.34ZM255.57,644.88h-.25v.26c.19,0,.27-.12.25-.26ZM174.17,507.2a35.68,35.68,0,0,0-6,3.52q-14.32,8.53-27.13,15.83a27.51,27.51,0,0,0,1.75,3,98.56,98.56,0,0,0,10.3,12.06l3.27,3.27,1.26,1.51q4.51-2.52,9.54-5a396.76,396.76,0,0,0,35.68-20.1,403.69,403.69,0,0,0,33.67-24.12l-18.59-20.6q-16.14,15-43.72,30.65Zm-6,3.52c.84-1.67,1.67-3.27,2.51-4.77q11.81-18.34,34.67-41v-.25a1.67,1.67,0,0,1,.76-.75,64.09,64.09,0,0,0-10.3-8.54,15.37,15.37,0,0,0-4.53-2.52,40.93,40.93,0,0,0-7-2.76,7.27,7.27,0,0,0-1.76-.25Q145.78,487.6,141,526.55q12.81-7.29,27.13-15.83Zm34.67,10.55a124.47,124.47,0,0,1-7.54,26.13A173.78,173.78,0,0,1,183,571.77h-.25l3.77,4,.25.25,31.66-16.33a150,150,0,0,0,9.8-25.12q4.22-13.51,6.28-23.12c1.35-6.37,2.27-10.9,2.76-13.56l-.75-.76a403.69,403.69,0,0,1-33.67,24.12Zm15.33-44.72-.25-.25h-.26l.26.25Z" transform="translate(-90.52 -442.87)"/><path class="eab5df81-957a-4eda-a8fb-ffcbf824267e" d="M451.29,708a12.69,12.69,0,0,1-1.51-1.76,548.55,548.55,0,0,0-55.27,91.95l18.59,21.11q2.19-5.18,4.52-10.3,1.78-3.88,3.52-7.79,5.48-11.24,11.31-22.36a558,558,0,0,1,32.91-53q-3.51-4.77-7.79-10Q454.06,711.47,451.29,708Z" transform="translate(-90.52 -442.87)"/><path d="M1340.69,884.07a535.21,535.21,0,0,1,17.84,106.52q19.47,2.4,31.15-11.05,7.21-9.46,10.81-23.37a113.48,113.48,0,0,0,3.51-25.62,158.79,158.79,0,0,0-.25-20.35q-2.71-33-15.32-44.22a21.64,21.64,0,0,0-7.29-4.27q-23-10.71-40.45,22.36Zm63.82,46.23h-.25l-.26.25a113.48,113.48,0,0,1-3.51,25.62q72.94,18.83,150,127.38,171.94,234.87,355.76,207.53-50.19-43.42-26.38-105-98-5.4-236.17-127.88-107.31-94.28-215.82-119.59Q1489,963,1550,1016.72a10.63,10.63,0,0,0,1,1q101.08,100,157.28,130.9-56.19-30.9-157.28-130.9a10.63,10.63,0,0,1-1-1q-61-53.76-122.11-78.13s-.12,0-.25,0q-11.55-4.65-23.11-8.29Zm72.86-89.7q-13.95,30.3-29.4,51,140.87-123.39,226.87-114.81,28,2.38,42,18.59-58.74-102.92,9.55-131.9-135.6-37.37-251.24,120.84-49.24,77.88-86.68,81.66,12.6,11.26,15.32,44.22a158.79,158.79,0,0,1,.25,20.35l.26-.25q23.12-10.54,43.71-38.7,15.45-20.7,29.4-51,27.83-53.31,61.8-88.94,44.52-46.49,99.75-58.54-55.23,12.06-99.75,58.54Q1505.2,787.29,1477.37,840.6Z" transform="translate(-90.52 -442.87)"/><path class="bdafbf65-700c-4728-bb70-0969a2f4e7d3" d="M682.47,983.48l-1.71-2.12c-16-8.52-32.67-15.71-42.8-18.9q-32,23.14-34.67,61.55,1.25,50.38,32.66,80.65,21.9,22.11,50.25,22.11,37.18,0,63.32-37.94,3.36-4.86,6.28-10,16.92-31.83,8.79-67.33a222.17,222.17,0,0,1-47.74-12.82q11.82,15.6,11.81,36.69,0,22.86-13.82,38.94-13.82,16.34-33.41,16.33T648,1074.26q-13.82-16.08-13.81-38.94c0-15.25,10.62-22.86,19.83-33.75C662.3,992,671.14,984.58,682.47,983.48Z" transform="translate(-90.52 -442.87)"/><path class="a2b5bc7a-4212-45df-b9b5-1e63184fa001" d="M1105,984.31a78.07,78.07,0,0,1,14.58,13.07q21.6,24.61,21.6,59.54t-21.6,59.55q-21.61,24.62-52.26,24.62t-52.26-24.62q-21.6-24.63-21.61-59.55,0-23.68,9.8-42.71l-17.33,4.27q-34.65,67.3-18.09,112.06,5.86,16.86,17.08,27.63l.5.25q14.21,13.44,36.94,17.34,41.13,5.68,109.29-20.35,17.52-7.53,32.41-12.56a246.73,246.73,0,0,0,23.86-15.08q32.63-22.85,32.16-63.81t-35.42-71.1a121.68,121.68,0,0,0-21.36-15.08q-24.74-.49-58.29,6.53Z" transform="translate(-90.52 -442.87)"/><path class="a5b7f8db-2639-4edb-905c-61786d5ad26b" d="M402.05,847.13q2-5.45,4-10.8,3.33-8.6,7-17.08l-18.59-21.11q-3,6.78-6.28,13.82l-19.35,3q6.28,5.52,14.57,13.31l7.79,7.29Q396.22,840.56,402.05,847.13Z" transform="translate(-90.52 -442.87)"/><path d="M1062.57,1112.17c-14.21,0-26.56-6.41-36.7-19-9.82-12.46-14.79-27.58-14.79-45,0-16.69,4.66-31.34,13.85-43.53a3.24,3.24,0,1,1,5.18,3.9c-8.32,11-12.54,24.38-12.54,39.63,0,15.92,4.5,29.71,13.37,41s19.31,16.6,31.63,16.6,22.81-5.43,31.62-16.6c9-11.28,13.62-25,13.62-41,0-15.75-4.57-29.43-13.61-40.69-5.1-6.47-10.88-11.08-17.19-13.73a3.24,3.24,0,0,1,2.51-6c7.33,3.08,14,8.36,19.76,15.68,10,12.41,15,27.46,15,44.72,0,17.42-5.06,32.56-15,45C1089.3,1105.76,1076.94,1112.17,1062.57,1112.17ZM402.05,850.37a3.24,3.24,0,0,1-2.43-1.09c-3.82-4.31-7.41-8.15-10.67-11.41l-7.71-7.21q-7.53-7.08-13.39-12.27L326.61,824a3.32,3.32,0,0,1-2.24-.52l-22.6-15.06-.09-.07h0a3.54,3.54,0,0,1-.53-.49h0a3.21,3.21,0,0,1-.72-1.48,2.57,2.57,0,0,1-.05-.4,3.25,3.25,0,0,1,.34-1.72c6.75-13.49,13.6-25.92,20.39-37l-7.95-8-.05,0-19.51-19-.08-.09L265.4,712.81l-.07-.07-21-20.52-.12-.12L210.6,658.77l0,0-20.78-20.28-.09-.09L158.87,608l-.08-.08-16.5-16.25-.07-.07-30.57-29.57-.12-.12-.7-.7a79.58,79.58,0,0,1-12-15.19c-.65-1.14-1.27-2.15-1.88-3.08a2.9,2.9,0,0,1-.41-.78,68.37,68.37,0,0,1-4-9.9c-5-17.62-.24-36.24,14.06-55.42,22-30,47.88-40.21,76.91-30.4a7.59,7.59,0,0,1,2.2.76l.07,0a37.41,37.41,0,0,1,7,2.76,17,17,0,0,1,5,2.85,66.28,66.28,0,0,1,10.56,8.76l.1.1,2.46,2.46,9.36,9.86a3.61,3.61,0,0,1,.64.95l18,19.93a1,1,0,0,1,.13.16l.68.79,0,0,29,32.17.05.06L286,546.39a3.73,3.73,0,0,1,.26.3l4.13,4.86,0,0,31.77,34.77.1.11,18.5,20.25.13.14,6,6.7,0,0,18.75,20.25.15.17,19.63,21.87a3.58,3.58,0,0,1,.26.29l12.79,14.28q4.34-3.9,9.42-8.4a3.33,3.33,0,0,1,1.5-.75l54.5-11,.26,0h0l.21,0h0a3,3,0,0,1,2.19.72,4.27,4.27,0,0,1,.38.36l14.78,16a3.24,3.24,0,0,1-.09,4.49,62,62,0,0,0-5.25,6q-8.6,10.13-16.6,20.37-3.21,3.82-6,7.85c2,2.51,4,5,6.23,7.69,2.89,3.58,5.55,7,8,10.31a3.24,3.24,0,0,1-5.21,3.86q-3.6-4.85-7.83-10.07-2.79-3.39-5.13-6.32a549.06,549.06,0,0,0-51.56,86.16l17.17,19.49a3.24,3.24,0,1,1-4.86,4.29l-15.26-17.32q-2.06,4.56-4.23,9.23a2.4,2.4,0,0,1-.11.23,3.26,3.26,0,0,1-1.36,1.32h0a2.9,2.9,0,0,1-.66.25h0a2,2,0,0,1-.35.07l-12.53,2q4.38,4,9.53,8.81l7.78,7.28c3.42,3.43,7.11,7.36,11,11.77a3.23,3.23,0,0,1-2.42,5.39Zm-89.93-42.88L327,817.38l54.53-7.65-12-12.13Zm62.51-13.94,12.62,12.8q2.21-4.83,4.3-9.52a1,1,0,0,1,0-.1,555.23,555.23,0,0,1,55.54-92.41,116.55,116.55,0,0,1,7.71-10.27c5.3-6.79,10.9-13.67,16.59-20.36,1.07-1.4,2.27-2.82,3.55-4.23l-10.21-11.07c-8.95,11.18-17.57,22.55-25.67,33.86A852.4,852.4,0,0,0,374.63,793.55Zm-47.41-24c-5.93,9.6-11.92,20.28-17.85,31.82l59.16-10.19a857.43,857.43,0,0,1,65.33-102.76c7.16-10,14.77-20.1,22.64-30.06l-44.92,9.11q-4.66,4.14-8.69,7.75l13.35,14.42a3.25,3.25,0,0,1,.24,4.11l-47.23,64.81a3.22,3.22,0,0,1-1.87,1.26ZM322,759l4.15,4.14,34.08-8.25L355.39,750c-4.38,1.46-8.94,2.81-13.59,4A203.4,203.4,0,0,1,322,759Zm-19.88-19.49,14.3,13.94a199.75,199.75,0,0,0,23.6-5.65q5.2-1.35,10.09-2.88l-14-14.4c-7,2.43-14.41,4.59-22,6.44Q308.19,738,302.14,739.52ZM360.53,746l5.7,5.7,43.43-59.6L395.9,677.24v0h0l-10.33-11.54c-1.67,12.82-3.66,25.43-5.92,37.6a99.24,99.24,0,0,1-17.66,41A13.35,13.35,0,0,0,360.53,746ZM341.2,726.47l14.61,15a16.78,16.78,0,0,1,1.23-1.41,92.76,92.76,0,0,0,16.19-38c2.38-12.78,4.45-26.06,6.17-39.54-10.52,8-18.11,13.47-23,16.66a125.22,125.22,0,0,1-14,44.85C342,724.81,341.63,725.62,341.2,726.47Zm-67.07-14.21,22.57,22c5.51-1.48,10.91-2.68,16.1-3.6,6.15-1.51,12.29-3.27,18.23-5.23l-21.69-21.9C292.84,707.65,281.06,710.58,274.13,712.26ZM316,701l20.33,20.52a3.73,3.73,0,0,0,.16-.35,119,119,0,0,0,12.65-37.4A214.47,214.47,0,0,1,329.63,695C324.91,697.25,320.36,699.26,316,701Zm-63.33-9.69,15.93,15.55c5.3-1.23,17.09-4.15,35.18-8.69l-17.1-17.1C280.15,683,269,686.35,252.7,691.35ZM293.79,679l17.1,17.1c5-2,10.36-4.31,15.9-6.93a215.16,215.16,0,0,0,22.71-13.34c.53-.35,1.23-.79,2.11-1.32l0,0c4.7-2.91,13.07-8.94,24.83-17.89l.51-.36-14-15.71c-.13.12-.3.29-.37.34a331.46,331.46,0,0,1-30.45,21.82,15.08,15.08,0,0,0-2.83,1.63l-.15.1-.29.17c-3.26,1.71-8.08,4-14.74,6.86a182.65,182.65,0,0,1-20.06,7.4Zm-74.34-20.6,28,27.77c15.59-4.81,26.9-8.23,34.24-10.37l-26.38-26.38a3.15,3.15,0,0,1-.63-.89C238.85,653.38,227.23,656.63,219.45,658.42Zm42-12,27.39,27.39.77-.24c.24-.61.57-1.34,1-2.24,7.85-16.37,14-30.52,18.32-42.18l-3.18,1.57a181.18,181.18,0,0,1-22,8.59q-13.49,4.44-21.68,6.93Zm55.89-21.5c-4.15,12.22-10.62,27.62-19.26,45.86,4.88-1.67,9.4-3.42,13.48-5.23,5.83-2.54,10.33-4.62,13.41-6.19,7.92-17.32,13.3-31.68,16-42.72l-3.18-3.58C328.81,618.05,321.94,622,317.32,624.91Zm28.85-2.61a254,254,0,0,1-11.47,31.09c7.34-4.91,15.44-10.85,23.87-17.57l.06-.06ZM198.35,637.75,213.94,653c6.73-1.28,18.65-4.5,35.52-9.6l-15.21-15.21Zm43-11.64,15.07,15.06c1-.31,2.2-.69,3.71-1.15q8.13-2.47,21.53-6.88a175,175,0,0,0,21.2-8.25q8-4,10-5a3.48,3.48,0,0,1,.63-.26c4.5-2.81,11.16-6.68,19.84-11.53l-13.95-15.27a3.31,3.31,0,0,1-1.68.51c-16.34,9.77-31,17.13-43.59,21.88l-.05,0c-1.5.77-5.49,2.3-11.88,4.54C256.77,621.51,249.86,623.6,241.38,626.11Zm-73.94-18.74L193,632.48l36-9.64L203.3,596.72C197.41,599,185.6,602.54,167.44,607.37Zm42.48-13.17,26.25,26.68h0c.45-.9,1.54-3.24,3.78-9,2.16-5.5,6-17.88,11.37-36.86a248.8,248.8,0,0,1-27.23,13.54C218.33,591,213.57,592.82,209.92,594.2Zm49.54-24c-6.53,23.24-10.93,37.65-13.43,44-.63,1.61-1.19,3-1.68,4.17q9.41-2.79,15.77-4.81c3.78-1.32,6.37-2.29,8.15-3,4.75-13.65,10.18-32.53,16.16-56.16L283.19,553Zm30.18-9.93c-4.86,19-9.37,34.78-13.44,47.14a296.09,296.09,0,0,0,38.42-19.81Zm-139,30.5,11.44,11.27c17.29-4.55,29.39-8,36.14-10.39L185.74,579.6Zm41.6-13.95,12.66,12.29c3.8-1.37,9.44-3.57,16.81-6.56,8.66-3.51,19.76-9.19,33-16.89l24.13-17.5-13-13.73q-4.32,2.68-9.27,5.86c-13.2,8.69-24.27,15.5-32.85,20.22-1.4.69-2.6,1.34-3.73,2l-.14.08ZM120.37,561.5l25,24.18,35.35-11.29-.35-.37-24.93-25.17-3.3,1.5a3.28,3.28,0,0,1-.75.24q-5.09,2.4-9.47,4.11A206,206,0,0,1,120.37,561.5Zm66.53,10,.51.54L216,557.32a157,157,0,0,0,9.25-23.67c2.69-8.87,4.74-16.56,6.09-22.86q.78-3.71,1.37-6.55c-8.65,6.64-17.68,13-26.92,19a127.43,127.43,0,0,1-7.49,25.42A178.06,178.06,0,0,1,186.9,571.5Zm-24-24.32,19.29,19.49a174.66,174.66,0,0,0,10.06-20.5A117.92,117.92,0,0,0,198.1,528c-8.57,5.2-18.46,10.63-29.5,16.22Q165.68,545.73,162.93,547.18Zm-58.37-4.08a73.41,73.41,0,0,0,10.34,13.06,196.76,196.76,0,0,0,24.71-7.52c2.92-1.13,6.11-2.53,9.55-4.17a3.63,3.63,0,0,1,.83-.26l.74-.33a102.89,102.89,0,0,1-10.6-12.42c-.18-.28-.36-.55-.52-.81A331.21,331.21,0,0,1,104.56,543.1ZM239.14,505q-.63,3.06-1.5,7.16c-1.39,6.49-3.48,14.35-6.23,23.39a170.86,170.86,0,0,1-6,16.6C233,547.75,242.3,542,253,534.9q4.43-2.85,8.33-5.29Zm-93.69,22.77v0a95.4,95.4,0,0,0,9.9,11.56l3,3c2.36-1.28,4.81-2.55,7.37-3.83a397.7,397.7,0,0,0,35.36-19.92c10.6-6.82,20.92-14.14,30.71-21.8l-14-15.5c-10.71,9.37-24.82,19-42,28.77a33.59,33.59,0,0,0-5.67,3.29,3.48,3.48,0,0,1-.55.33C161,518.75,153,523.41,145.45,527.75Zm17.07-78.42c-18.64,0-35.39,10.39-50.81,31.4-13,17.51-17.44,34.23-13.06,49.71a61.37,61.37,0,0,0,2.66,6.84A314.11,314.11,0,0,0,135,525.54c-9.41-9.76-10.1-25.59-1.77-46.9,4.75-8.46,11.61-16.13,20.61-23.23a39.85,39.85,0,0,1,9.92-6.06Zm21.11,4.05c-21.07,22-33.95,44.47-38.36,67q9.78-5.62,20.4-11.95c.72-1.41,1.43-2.76,2.15-4.05,7.81-12.14,19.12-25.61,33.75-40.22a57.75,57.75,0,0,0-7.56-6,13,13,0,0,0-3.78-2.15A41.77,41.77,0,0,0,183.63,453.38Zm-8.31-.61a15.33,15.33,0,0,0-3.76.93,31.23,31.23,0,0,0-13.67,6.76c-8.39,6.61-14.71,13.65-18.84,21-6.84,17.58-7,30.35-.3,38.55C143,497.26,155.27,474.71,175.32,452.77Zm30.88,15.92c-11.82,11.81-21.41,22.8-28.59,32.8,14.45-8.48,26.53-16.93,35.88-25.12Z" transform="translate(-90.52 -442.87)"/><path class="fe6cb717-91cc-4d34-8f25-5e7873b0db86" d="M865.59,1557.13c-136.79,0-255.25-51.66-352.08-153.52-96.62-101.82-145.61-226.5-145.61-370.56,0-61.57,9-120.1,26.67-174q2.15-6.55,4.42-13l0,0q2-5.46,4-10.84,3.38-8.7,7.09-17.23c1.45-3.44,3-6.91,4.55-10.35q1.79-3.92,3.66-7.84c3.55-7.46,7.39-15,11.38-22.38A512.71,512.71,0,0,1,462.84,724l1.1-1.58a565.39,565.39,0,0,1,49.57-60C610.34,560.64,728.8,509,865.59,509s255.25,51.65,352.08,153.51c59.51,62.81,101.25,134.53,124.17,213.28,11.66-18.45,25.31-24.19,40.67-17a24,24,0,0,1,7,3.94c23.46-3.34,51.35-30.28,83-80.12,77.63-106.36,163.31-147.43,254.71-122.24a3.24,3.24,0,0,1,.4,6.11c-16.55,7-27.3,17.57-31.94,31.33-7.62,22.56.44,54.89,23.95,96.11a3.24,3.24,0,0,1-5.29,3.7c-8.66-10.16-22-16.08-39.64-17.58-56.2-5.6-131.63,32.69-224.19,113.79-11.91,16.12-24.56,28.14-37.71,35.85,5.34,1.8,10.71,3.78,16,5.92,72.35,16.81,145.43,57.29,217.13,120.28,91,80.71,169.8,123.42,234.07,127a3.27,3.27,0,0,1,2.55,1.48,3.24,3.24,0,0,1,.3,2.93c-15.47,40-7.13,73.18,25.48,101.4a3.23,3.23,0,0,1-1.65,5.65c-123.16,18.4-244-51.86-358.85-208.68-49.61-70-98.4-112.16-145.11-125.46a66.08,66.08,0,0,1-10.49,21.36c-7.82,9-18,13.35-30.13,12.75.76,12.77,1.15,25.8,1.15,38.8,0,144.06-49,268.74-145.61,370.56-44.12,46.47-93.13,82.8-145.66,108-7.34,3.83-15.2,7.51-23.27,10.87C992.47,1545.46,930.85,1557.13,865.59,1557.13ZM405.1,848.24c-1.5,4.24-3,8.53-4.37,12.84-17.48,53.24-26.34,111.09-26.34,172,0,142.35,48.38,265.52,143.82,366.1s212.43,151.49,347.38,151.49c64.42,0,125.21-11.5,180.67-34.18,7.88-3.29,15.57-6.88,22.84-10.68C1121,1480.9,1169.39,1445,1213,1399.14c95.43-100.57,143.83-223.74,143.83-366.09,0-14.13-.47-28.29-1.38-42.1h0a546.86,546.86,0,0,0-17.73-106h0C1315.55,804.28,1273.59,731,1213,667c-95.56-100.52-212.43-151.49-347.38-151.49s-251.82,51-347.38,151.5a560.23,560.23,0,0,0-49,59.19l-1.08,1.56a.09.09,0,0,1,0,.06,506.07,506.07,0,0,0-32.7,52.68c-3.95,7.3-7.73,14.73-11.24,22.09-1.24,2.59-2.44,5.17-3.62,7.74q-2.31,5.09-4.48,10.22-3.69,8.46-7,17C407.74,841,406.41,844.63,405.1,848.24Zm999.3,105.64c48.22,13.68,98.24,56.7,148.72,127.93,111.17,151.75,227.46,221.32,345.8,207-29.11-27.92-37-61.45-23.6-99.8-64.94-5.25-143.51-48.38-233.66-128.27-57.87-50.85-116.59-86.85-175.06-107.38,28.56,15.59,57.2,36,85.52,61.07l1.13,1c66.92,66.19,119.55,110,156.57,130.37a3.24,3.24,0,1,1-3.13,5.68c-37.54-20.65-90.66-64.83-157.86-131.31l-.64-.56c-40.52-35.82-81.24-61.91-121.39-77.87h0l-.38-.13c-6.39-2.57-12.86-4.9-19.26-7A121.82,121.82,0,0,1,1404.4,953.88Zm-42.71,33.86c10.56.62,19-2.76,25.54-10.32,4.39-5.78,7.84-13.25,10.12-22.06a.06.06,0,0,1,0,0,115.43,115.43,0,0,0,3.53-24.89v0a196.52,196.52,0,0,0-.25-20c-1.81-20.93-6.6-35-14.24-41.87a18.92,18.92,0,0,0-6.33-3.75c-13.6-6.34-25.23.15-35.79,19.69A553,553,0,0,1,1361.69,987.74Zm33.21-119.46c6.54,8.7,10.55,22.41,12.21,41.64.32,5.32.45,10.43.4,15.29,13.16-7.22,25.91-19.14,38-35.51l0,0c10-13.57,19.82-30.5,29.07-50.32,18.57-35.85,39.5-66.07,62.27-89.93,30-31.33,64.11-51.34,101.4-59.47a3.24,3.24,0,0,1,1.38,6.33c-36,7.86-69,27.24-98.09,57.61-22.35,23.43-42.92,53.14-61.15,88.32A347.86,347.86,0,0,1,1463.63,874c86.12-72.09,157.25-105.86,211.66-100.45,12.07,1,22.38,4,30.8,8.91-18.26-36.07-23.84-65.21-16.57-86.75,4.45-13.15,13.65-23.64,27.42-31.28-85.38-19.59-165.76,21.36-239.09,121.8C1446.75,835.32,1419.5,862.3,1394.9,868.28Zm-682.57,462a3.24,3.24,0,0,1-1.91-5.86c41.12-30,81.13-50.24,118.93-60.07a3.24,3.24,0,0,1,1.63,6.28c-37,9.62-76.28,29.48-116.74,59A3.2,3.2,0,0,1,712.33,1330.25Zm366.56-5.78a3.29,3.29,0,0,1-1.82-.55c-59-40-113.94-62.84-163.32-67.81a3.24,3.24,0,1,1,.65-6.44c50.46,5.07,106.42,28.25,166.32,68.88a3.24,3.24,0,0,1-1.83,5.92ZM608.8,1292.74a483.14,483.14,0,0,1-52.59-3,3.24,3.24,0,0,1,.7-6.44c94.67,10.35,173.89-6.8,235.44-50.92a3.24,3.24,0,0,1,3.78,5.27C745.05,1274.3,682.2,1292.74,608.8,1292.74Zm472.36-53c-47.6,0-95.11-11.44-141.87-34.24-59.8-27.34-122.11-25.92-185.1,4.29-59.23,28.09-127.14,23.26-201.85-14.35-79.1-37.88-117.88-96.38-115.22-173.85,4.32-49.46,20.49-81.94,48.06-96.71,36.23-19.3,80.76-23.47,132.36-12.38,10.43,2.23,21.35,5.13,32.45,8.62h0a732.15,732.15,0,0,0,120.44,26.89c91.48,12.43,187.06,7.35,284.12-15.15,116.32-25,193.93-16.67,230.65,24.75,18.5,22,24.19,53.3,17,93.06-24,109-76.36,170.19-155.72,181.89A302.65,302.65,0,0,1,1081.16,1239.79Zm-228.65-60.23q45.42,0,89.55,20.13c66.86,32.61,135.21,41.54,203.22,26.54,76.65-11.3,127.22-70.77,150.54-176.79,6.83-37.64,1.62-67.14-15.52-87.54-35-39.47-110.51-47.11-224.34-22.66C958.18,961.9,861.81,967,769.56,954.48a737.48,737.48,0,0,1-121.51-27.12h0c-10.9-3.43-21.62-6.28-31.86-8.47-50.06-10.74-93.11-6.79-127.94,11.76-25.52,13.67-40.54,44.41-44.65,91.39-2.55,74.48,35,130.94,111.61,167.63,72.89,36.69,138.88,41.5,196.19,14.31C785.36,1187.71,819.16,1179.56,852.51,1179.56ZM724.65,903.89h-.23c-13.24-.91-34.93-6.13-66.32-16-20.65-6.83-43.71-9.15-68.58-6.89a3.24,3.24,0,1,1-.59-6.46c25.77-2.31,49.71.09,71.16,7.18,30.42,9.54,52.23,14.82,64.77,15.68a3.24,3.24,0,0,1-.21,6.47Z" transform="translate(-90.52 -442.87)"/><path class="bf16f069-cf81-4356-a56b-568fc0dad98d" d="M985.43,1161.66a3.27,3.27,0,0,1-1.29-.26,7,7,0,0,1-1.31-.86,3.29,3.29,0,1,1,5.57-.83A3.22,3.22,0,0,1,985.43,1161.66ZM746,1156.26a3.24,3.24,0,0,1-1.81-5.93l1.15-.8a3.24,3.24,0,1,1,3.83,5.23c-.46.33-.91.65-1.36,1A3.2,3.2,0,0,1,746,1156.26Z" transform="translate(-90.52 -442.87)"/><path class="ab405b36-1560-4570-b33d-df74803fb039" d="M985.06,1161.42a3.26,3.26,0,0,1-2.24-.89c-7.9-7.51-13.93-17.25-17.91-29-11.38-30.5-5.28-69.07,18.14-114.58a3.24,3.24,0,1,1,5.77,3c-22.56,43.81-28.55,80.63-17.81,109.44,3.67,10.77,9.14,19.64,16.28,26.42a3.24,3.24,0,0,1-2.23,5.59Zm-364.68-1.14a3.3,3.3,0,0,1-1.19-.22,162.61,162.61,0,0,1-50.5-31.41c-25.53-23.3-38.49-51.33-38.49-83.28,0-32.17,13-59.47,38.59-81.12a129.8,129.8,0,0,1,20.87-14.43,3.24,3.24,0,1,1,3.14,5.67A123.59,123.59,0,0,0,573,969.2c-24.07,20.37-36.28,46-36.28,76.17s12.24,56.47,36.38,78.5a156,156,0,0,0,48.5,30.16,3.24,3.24,0,0,1-1.19,6.25Zm126.88-4.9a3.24,3.24,0,0,1-1.91-5.86,93.16,93.16,0,0,0,10.68-9.1c22.37-22.14,32.91-45.81,31.33-70.35-1.64-25.2-4.75-44.08-9.23-56.11a3.24,3.24,0,1,1,6.08-2.26c4.7,12.62,7.94,32.12,9.62,58,1.71,26.5-9.47,51.86-33.24,75.38a99.72,99.72,0,0,1-11.43,9.73A3.2,3.2,0,0,1,747.26,1155.38Zm416.94-9.16a3.24,3.24,0,0,1-1.61-6.06c7.66-4.35,15.61-9.41,23.61-15,20.92-14.71,31-34.7,30.65-61.13-.31-26.2-11.85-49.31-34.3-68.68a119.14,119.14,0,0,0-20.81-14.7,3.24,3.24,0,0,1,3.14-5.67,126,126,0,0,1,21.93,15.48c23.89,20.62,36.19,45.35,36.52,73.5.33,28.32-10.92,50.69-33.41,66.5-8.17,5.75-16.28,10.92-24.12,15.37A3.23,3.23,0,0,1,1164.2,1146.22Z" transform="translate(-90.52 -442.87)"/><path class="a93d4015-d999-4f82-933c-5c4ba6abf647" d="M1067.34,1144.33c-21.32,0-39.72-8.66-54.7-25.72s-22.41-37.7-22.41-61.69c0-16.24,3.46-31.12,10.29-44.21a3.24,3.24,0,0,1,5.75,3c-6.34,12.16-9.56,26-9.56,41.21,0,22.37,7,41.68,20.81,57.41s30.45,23.52,49.82,23.52,36.13-7.91,49.82-23.52,20.8-35,20.8-57.41-7-41.68-20.8-57.4a75,75,0,0,0-14-12.53,3.24,3.24,0,0,1,3.65-5.36A81.28,81.28,0,0,1,1122,995.24c14.87,16.94,22.41,37.7,22.41,61.68s-7.54,44.74-22.41,61.69S1088.65,1144.33,1067.34,1144.33ZM686.2,1130c-19.71,0-37.39-7.77-52.55-23.08-21.43-20.63-32.75-48.52-33.6-82.84,1.88-26.8,14-48.27,36-64.14a3.24,3.24,0,1,1,3.79,5.26c-20.38,14.69-31.6,34.55-33.34,59,.82,32.24,11.47,58.62,31.68,78.08,13.95,14.09,30.08,21.2,48,21.2,23.54,0,43.95-12.29,60.65-36.52,2.16-3.13,4.22-6.42,6.12-9.81,10.82-20.34,13.68-42.24,8.46-65a3.24,3.24,0,0,1,6.32-1.44c5.58,24.34,2.51,47.74-9.09,69.57-2,3.63-4.2,7.1-6.48,10.38C734.2,1116.77,712,1130,686.2,1130Z" transform="translate(-90.52 -442.87)"/><path d="M677.62,1096.37c-14-1.24-25.46-8.17-34.2-20.59-8.63-12.08-12.29-26.27-10.87-42.18s7.54-29.29,18.19-39.83c9.7-9.42,17.82-12.39,30-12.41,1.76,0,9.77,3.43,9.78,5.22s-5-.53-6.81-.53c-10.6,0-19.9,4.05-28.45,12.36-9.51,9.41-15,21.45-16.28,35.77s2,27,9.71,37.84c7.71,11,17.36,16.81,29.49,17.9s22.65-3,32.16-12.37,15-21.23,16.28-35.55c1.18-13.22-1.52-25.18-8-35.57a3.24,3.24,0,1,1,5.5-3.44c7.27,11.61,10.29,24.93,9,39.59-1.42,15.9-7.54,29.23-18.19,39.6C704.12,1092.83,691.57,1097.62,677.62,1096.37Z" transform="translate(-90.52 -442.87)"/><path class="bc9bd411-98ae-46da-b80b-4ee90bae085d" d="M663.13,1018.32a24,24,0,0,0,0-33.28,22.34,22.34,0,0,0-32.27,0,24,24,0,0,0,0,33.28,22.34,22.34,0,0,0,32.27,0Z" transform="translate(-90.52 -442.87)"/><path class="bc9bd411-98ae-46da-b80b-4ee90bae085d" d="M1037.94,1023.87a20.47,20.47,0,0,0-15.31-6.43,21,21,0,0,0-15.49,6.43,22.36,22.36,0,0,0-6.24,15.94,21.81,21.81,0,0,0,6.24,15.77,20.81,20.81,0,0,0,15.49,6.59,20.26,20.26,0,0,0,15.31-6.59,21.49,21.49,0,0,0,6.42-15.77A22,22,0,0,0,1037.94,1023.87Z" transform="translate(-90.52 -442.87)"/><path class="bc9bd411-98ae-46da-b80b-4ee90bae085d" d="M738.88,1060.2a17.36,17.36,0,0,0-5.09-12.58,16.88,16.88,0,0,0-24.41,0,18.1,18.1,0,0,0,0,25.17,16.88,16.88,0,0,0,24.41,0A17.37,17.37,0,0,0,738.88,1060.2Z" transform="translate(-90.52 -442.87)"/><path class="bc9bd411-98ae-46da-b80b-4ee90bae085d" d="M1105,1057.58a13.48,13.48,0,0,0-9.92,4.12,14.33,14.33,0,0,0-4,10.2,14,14,0,0,0,4,10.1,13.34,13.34,0,0,0,9.92,4.22,13,13,0,0,0,9.81-4.22,13.8,13.8,0,0,0,4.1-10.1,14.14,14.14,0,0,0-4.1-10.2A13.11,13.11,0,0,0,1105,1057.58Z" transform="translate(-90.52 -442.87)"/><path class="bf16f069-cf81-4356-a56b-568fc0dad98d" d="M687.26,1173.68a152.8,152.8,0,0,1-21.74-1.62c-7.77-1.11-15.35-2.56-22.55-4.34l-4.23-1.14a190,190,0,0,1-19.56-6.52c-23.81-8.16-45-18.66-62.72-31.14-27.56-19.29-50.43-26.06-68-20.19a3.24,3.24,0,0,1-2.06-6.14c19.58-6.58,44.39.49,73.74,21,17.26,12.14,37.87,22.35,61.25,30.37a181.38,181.38,0,0,0,19,6.34l4.13,1.13c6.92,1.7,14.29,3.11,21.84,4.19,31,4.44,57.11-.7,77.69-15.26a3.24,3.24,0,1,1,3.75,5.29C731,1167.65,710.62,1173.68,687.26,1173.68Z" transform="translate(-90.52 -442.87)"/><path class="bf16f069-cf81-4356-a56b-568fc0dad98d" d="M1037.59,1180.09a116.26,116.26,0,0,1-15.54-1c-15.93-2.82-29-9-38.85-18.32a3.24,3.24,0,0,1,4.46-4.71c9,8.46,20.86,14,35.39,16.62,26.57,3.61,62.79-3.22,107.58-20.31,11.51-5,22.51-9.21,32.56-12.49,36.07-11.79,61.55-12.63,78-2.56a3.24,3.24,0,0,1-3.4,5.52c-14.46-8.87-38.87-7.8-72.54,3.21-9.86,3.21-20.66,7.36-32.13,12.32C1095.2,1172.83,1063.21,1180.09,1037.59,1180.09Z" transform="translate(-90.52 -442.87)"/><path class="bf74ebc1-4b89-4e49-b5f1-0e75f40ef7a1" d="M948.42,1026.35c-21.39,0-37.24-5.68-47.32-17A3.24,3.24,0,0,1,906,1005c13.18,14.85,38.49,18.6,75.2,11.16,1.35-.25,2.69-.54,4.06-.86l16.88-4.12a2.42,2.42,0,0,1,.56-.24c10.55-2.93,22-6.67,34-11.1a623.45,623.45,0,0,1,67.67-18.72c22.5-4.72,42.3-6.93,59-6.6,26.84.52,46.56,7.64,58.63,21.18a3.24,3.24,0,0,1-4.84,4.32c-10.82-12.14-29-18.53-53.92-19-16.1-.29-35.54,1.85-57.56,6.46a613.26,613.26,0,0,0-66.85,18.51c-11.92,4.38-23.38,8.12-34,11.08a3,3,0,0,1-.71.29l-17.47,4.27c-1.48.34-2.89.64-4.29.91A172.26,172.26,0,0,1,948.42,1026.35Z" transform="translate(-90.52 -442.87)"/><path class="bf74ebc1-4b89-4e49-b5f1-0e75f40ef7a1" d="M783.56,1016.1l-2.45,0q-3.06-.06-6.18-.26c-3.53-.24-7.12-.62-10.8-1.15a226.75,226.75,0,0,1-48.44-13A316,316,0,0,1,675.85,983c-16-8.48-28.94-14.28-38.84-17.32a246.56,246.56,0,0,0-36-8.56c-3.41-.49-6.8-.91-10.13-1.24-36.21-3.61-66.86,4.36-91.12,23.68a3.24,3.24,0,0,1-4-5.07c25.63-20.4,57.87-28.86,95.8-25.06,3.43.34,6.91.77,10.44,1.27a253,253,0,0,1,37,8.79c10.27,3.16,23.65,9.11,39.74,17.69A314.22,314.22,0,0,0,718,995.61a220.28,220.28,0,0,0,47,12.63c3.51.51,7,.87,10.3,1.1q3,.2,5.87.25a92.67,92.67,0,0,0,39.11-7.15,3.24,3.24,0,1,1,2.57,5.95A98.52,98.52,0,0,1,783.56,1016.1Z" transform="translate(-90.52 -442.87)"/><path class="bd56b519-fee9-4218-9a68-f42838261de9" d="M1396.09,903c3,23.08-7.93,29.67-20.46,31.3s-15.05,2.61-18.06-20.46-12.64-32.51,7.83-45.15C1376.15,862,1393.09,879.9,1396.09,903Z" transform="translate(-90.52 -442.87)"/><g class="ef62601b-557b-4e75-81c1-5e7d4256eec6"><path class="ab72a277-27a9-47e2-8577-40e811ab8188" d="M144.26,519c-5.69-7.23-4.54-31,7.82-45.47,11.68-13.7,34-18.79,48.4-4.89,72.36,69.91,202.29,223,202.29,223L362,744.28S196.57,585.51,144.26,519Z" transform="translate(-90.52 -442.87)"/></g><path class="bc43ddab-368b-486d-ac11-f3871a382808" d="M1024.83,1484c30.87,23.63,140.64-32.16,216.36-131.07s114-214.16,83.15-237.79-64.53,74.06-140.25,173S994,1460.35,1024.83,1484Z" transform="translate(-90.52 -442.87)"/></svg>